<mxfile host="app.diagrams.net" modified="2022-08-14T14:28:08.383Z" agent="5.0 (Windows NT 10.0; Win64; x64) AppleWebKit/537.36 (KHTML, like Gecko) Chrome/104.0.5112.81 Safari/537.36 Edg/104.0.1293.54" etag="aFVnmxcL5EGgxv_vuSdO" version="20.1.1" type="github">
  <diagram id="pVpKjqMkFvWR6pgowCiu" name="Page-1">
    <mxGraphModel dx="1662" dy="800" grid="1" gridSize="10" guides="1" tooltips="1" connect="1" arrows="1" fold="1" page="1" pageScale="1" pageWidth="827" pageHeight="1169" math="0" shadow="0">
      <root>
        <mxCell id="0" />
        <mxCell id="1" parent="0" />
        <mxCell id="vvuaGgXdfxbzSbXXYYbU-1" value="khách vãng lai&amp;nbsp;" style="shape=umlActor;verticalLabelPosition=bottom;verticalAlign=top;html=1;outlineConnect=0;" vertex="1" parent="1">
          <mxGeometry x="150" y="260" width="30" height="60" as="geometry" />
        </mxCell>
        <mxCell id="vvuaGgXdfxbzSbXXYYbU-2" value="" style="ellipse;whiteSpace=wrap;html=1;" vertex="1" parent="1">
          <mxGeometry x="380" y="90" width="120" height="80" as="geometry" />
        </mxCell>
        <mxCell id="vvuaGgXdfxbzSbXXYYbU-3" value="" style="ellipse;whiteSpace=wrap;html=1;" vertex="1" parent="1">
          <mxGeometry x="460" y="190" width="120" height="80" as="geometry" />
        </mxCell>
        <mxCell id="vvuaGgXdfxbzSbXXYYbU-4" value="Xem sách" style="ellipse;whiteSpace=wrap;html=1;" vertex="1" parent="1">
          <mxGeometry x="530" y="280" width="120" height="80" as="geometry" />
        </mxCell>
        <mxCell id="vvuaGgXdfxbzSbXXYYbU-5" value="" style="ellipse;whiteSpace=wrap;html=1;" vertex="1" parent="1">
          <mxGeometry x="370" y="340" width="120" height="80" as="geometry" />
        </mxCell>
        <mxCell id="vvuaGgXdfxbzSbXXYYbU-7" value="" style="endArrow=none;html=1;rounded=0;entryX=0;entryY=1;entryDx=0;entryDy=0;" edge="1" parent="1" target="vvuaGgXdfxbzSbXXYYbU-2">
          <mxGeometry width="50" height="50" relative="1" as="geometry">
            <mxPoint x="190" y="260" as="sourcePoint" />
            <mxPoint x="240" y="210" as="targetPoint" />
          </mxGeometry>
        </mxCell>
        <mxCell id="vvuaGgXdfxbzSbXXYYbU-8" value="" style="endArrow=none;html=1;rounded=0;entryX=0;entryY=0.5;entryDx=0;entryDy=0;" edge="1" parent="1" target="vvuaGgXdfxbzSbXXYYbU-3">
          <mxGeometry width="50" height="50" relative="1" as="geometry">
            <mxPoint x="200" y="280" as="sourcePoint" />
            <mxPoint x="407.57359312880726" y="168.28427124746167" as="targetPoint" />
          </mxGeometry>
        </mxCell>
        <mxCell id="vvuaGgXdfxbzSbXXYYbU-9" value="" style="endArrow=none;html=1;rounded=0;entryX=0.008;entryY=0.413;entryDx=0;entryDy=0;entryPerimeter=0;" edge="1" parent="1" target="vvuaGgXdfxbzSbXXYYbU-4">
          <mxGeometry width="50" height="50" relative="1" as="geometry">
            <mxPoint x="200" y="290" as="sourcePoint" />
            <mxPoint x="417.57359312880726" y="178.28427124746167" as="targetPoint" />
          </mxGeometry>
        </mxCell>
        <mxCell id="vvuaGgXdfxbzSbXXYYbU-10" value="" style="endArrow=none;html=1;rounded=0;entryX=0.008;entryY=0.35;entryDx=0;entryDy=0;entryPerimeter=0;" edge="1" parent="1" target="vvuaGgXdfxbzSbXXYYbU-5">
          <mxGeometry width="50" height="50" relative="1" as="geometry">
            <mxPoint x="210" y="320" as="sourcePoint" />
            <mxPoint x="427.57359312880726" y="188.28427124746167" as="targetPoint" />
          </mxGeometry>
        </mxCell>
        <mxCell id="vvuaGgXdfxbzSbXXYYbU-12" value="Đăng ký" style="text;html=1;strokeColor=none;fillColor=none;align=center;verticalAlign=middle;whiteSpace=wrap;rounded=0;" vertex="1" parent="1">
          <mxGeometry x="410" y="115" width="60" height="30" as="geometry" />
        </mxCell>
        <mxCell id="vvuaGgXdfxbzSbXXYYbU-14" value="Đăng nhâp" style="text;html=1;strokeColor=none;fillColor=none;align=center;verticalAlign=middle;whiteSpace=wrap;rounded=0;" vertex="1" parent="1">
          <mxGeometry x="490" y="215" width="60" height="30" as="geometry" />
        </mxCell>
        <mxCell id="vvuaGgXdfxbzSbXXYYbU-15" value="Tìm kiếm sách" style="text;html=1;strokeColor=none;fillColor=none;align=center;verticalAlign=middle;whiteSpace=wrap;rounded=0;" vertex="1" parent="1">
          <mxGeometry x="400" y="365" width="60" height="30" as="geometry" />
        </mxCell>
        <mxCell id="vvuaGgXdfxbzSbXXYYbU-18" value="" style="endArrow=none;dashed=1;html=1;rounded=0;exitX=1;exitY=0.5;exitDx=0;exitDy=0;startArrow=none;entryX=0;entryY=0.5;entryDx=0;entryDy=0;" edge="1" parent="1" source="vvuaGgXdfxbzSbXXYYbU-24" target="vvuaGgXdfxbzSbXXYYbU-20">
          <mxGeometry width="50" height="50" relative="1" as="geometry">
            <mxPoint x="390" y="300" as="sourcePoint" />
            <mxPoint x="530" y="390" as="targetPoint" />
            <Array as="points" />
          </mxGeometry>
        </mxCell>
        <mxCell id="vvuaGgXdfxbzSbXXYYbU-20" value="Tìm kiếm theo tên" style="ellipse;whiteSpace=wrap;html=1;" vertex="1" parent="1">
          <mxGeometry x="580" y="395" width="120" height="80" as="geometry" />
        </mxCell>
        <mxCell id="vvuaGgXdfxbzSbXXYYbU-21" value="" style="endArrow=none;dashed=1;html=1;rounded=0;startArrow=none;entryX=0.442;entryY=0.013;entryDx=0;entryDy=0;entryPerimeter=0;" edge="1" parent="1" target="vvuaGgXdfxbzSbXXYYbU-22">
          <mxGeometry width="50" height="50" relative="1" as="geometry">
            <mxPoint x="520" y="460" as="sourcePoint" />
            <mxPoint x="500" y="450" as="targetPoint" />
            <Array as="points" />
          </mxGeometry>
        </mxCell>
        <mxCell id="vvuaGgXdfxbzSbXXYYbU-22" value="" style="ellipse;whiteSpace=wrap;html=1;" vertex="1" parent="1">
          <mxGeometry x="490" y="480" width="120" height="80" as="geometry" />
        </mxCell>
        <mxCell id="vvuaGgXdfxbzSbXXYYbU-23" value="Tìm kiếm theo thể loại giá tiền" style="text;html=1;strokeColor=none;fillColor=none;align=center;verticalAlign=middle;whiteSpace=wrap;rounded=0;" vertex="1" parent="1">
          <mxGeometry x="510" y="510" width="70" height="20" as="geometry" />
        </mxCell>
        <mxCell id="vvuaGgXdfxbzSbXXYYbU-24" value="&amp;lt;&amp;lt;extend&amp;gt;&amp;gt;" style="text;html=1;strokeColor=none;fillColor=none;align=center;verticalAlign=middle;whiteSpace=wrap;rounded=0;rotation=30;" vertex="1" parent="1">
          <mxGeometry x="510" y="390" width="50" height="35" as="geometry" />
        </mxCell>
        <mxCell id="vvuaGgXdfxbzSbXXYYbU-25" value="" style="endArrow=none;dashed=1;html=1;rounded=0;exitX=1;exitY=0.5;exitDx=0;exitDy=0;" edge="1" parent="1" source="vvuaGgXdfxbzSbXXYYbU-5" target="vvuaGgXdfxbzSbXXYYbU-24">
          <mxGeometry width="50" height="50" relative="1" as="geometry">
            <mxPoint x="490" y="380" as="sourcePoint" />
            <mxPoint x="530" y="390" as="targetPoint" />
            <Array as="points" />
          </mxGeometry>
        </mxCell>
        <mxCell id="vvuaGgXdfxbzSbXXYYbU-26" value="&amp;lt;&amp;lt;extend&amp;gt;&amp;gt;" style="text;html=1;strokeColor=none;fillColor=none;align=center;verticalAlign=middle;whiteSpace=wrap;rounded=0;rotation=45;" vertex="1" parent="1">
          <mxGeometry x="475.00000000000006" y="420" width="49.29" height="32.48" as="geometry" />
        </mxCell>
        <mxCell id="vvuaGgXdfxbzSbXXYYbU-27" value="" style="endArrow=none;dashed=1;html=1;rounded=0;exitX=1;exitY=1;exitDx=0;exitDy=0;" edge="1" parent="1" source="vvuaGgXdfxbzSbXXYYbU-5" target="vvuaGgXdfxbzSbXXYYbU-26">
          <mxGeometry width="50" height="50" relative="1" as="geometry">
            <mxPoint x="472.42640687119274" y="408.2842712474619" as="sourcePoint" />
            <mxPoint x="500" y="450" as="targetPoint" />
            <Array as="points" />
          </mxGeometry>
        </mxCell>
      </root>
    </mxGraphModel>
  </diagram>
</mxfile>
